<svg version="1.2" xmlns="http://www.w3.org/2000/svg" viewBox="0 0 1000 1000" width="1000" height="1000">
	<title>5100599-ai</title>
	<style>
		.s0 { fill: #ebebeb } 
		.s1 { fill: #dbdbdb } 
		.s2 { fill: #c7c7c7 } 
		.s3 { fill: #a6a6a6 } 
		.s4 { fill: #ffffff } 
		.s5 { fill: #263238 } 
		.s6 { fill: #ffc727 } 
		.s7 { fill: #455a64 } 
		.s8 { fill: #000000 } 
		.s9 { opacity: .1;fill: #000000 } 
	</style>
	<g id="Background Complete">
		<g id="&lt;Group&gt;">
			<g id="&lt;Group&gt;">
				<path id="&lt;Compound Path&gt;" fill-rule="evenodd" class="s0" d="m145.2 594.1l-26.3 0.6-13.3 0.2c-4.4 0.1-8.9 0.1-13.4 0.1h-0.9v-0.9l-0.1-22.4v-1h1l26.5 0.2c8.8 0 17.7 0.2 26.5 0.3h0.5v0.5c0 3.8-0.1 7.6-0.2 11.3zm0 0l-0.3-11.3c-0.1-3.5-0.2-7-0.3-10.5-8.6 0.1-17.3 0.3-25.9 0.3l-25.5 0.2-0.1 20.5c4.1 0 8.1 0 12.2 0.1l13.2 0.2zm-0.6-21.8q0.3 0 0.6-0.1l-0.6-0.5q0 0.3 0 0.6zm-51.4 0.4v-1l-1 1zm-0.1 20.5q-0.4 0-0.9 0l0.9 0.9z"/>
			</g>
			<g id="&lt;Group&gt;">
				<path id="&lt;Compound Path&gt;" fill-rule="evenodd" class="s0" d="m115.6 622.3l-26.2 0.6-13.3 0.2c-4.5 0.1-9 0.1-13.4 0.1h-0.9v-0.9l-0.1-22.3v-1.1l1 0.1 26.5 0.1c8.8 0 17.6 0.2 26.4 0.3h0.6v0.6c0 3.8-0.2 7.5-0.3 11.3zm0 0l-0.3-11.3c0-3.6-0.2-7.1-0.2-10.6-8.7 0.1-17.3 0.3-26 0.4l-25.4 0.1-0.1 20.5c4 0 8.1 0 12.2 0.1l13.1 0.2zm-0.5-21.8q0.2 0 0.5 0l-0.5-0.6q0 0.3 0 0.6zm-51.5 0.4l0.1-1-1 1zm-0.1 20.5q-0.5 0-0.9 0l0.9 0.9z"/>
			</g>
			<g id="&lt;Group&gt;">
				<path id="&lt;Compound Path&gt;" fill-rule="evenodd" class="s0" d="m586.3 297.8l-26.2 0.5-13.3 0.2c-4.5 0.1-9 0.1-13.4 0.2h-0.9v-0.9l-0.1-22.4v-1h1l26.5 0.1c8.8 0 17.6 0.2 26.4 0.3h0.6v0.6c0 3.8-0.2 7.6-0.3 11.3zm0 0l-0.3-11.3c0-3.6-0.2-7.1-0.2-10.5-8.7 0.1-17.3 0.3-26 0.3l-25.4 0.1-0.1 20.5c4 0 8.1 0 12.2 0.1l13.1 0.2zm-0.5-21.8q0.2 0 0.5 0l-0.5-0.5q0 0.2 0 0.5zm-51.4 0.5v-1l-1 1zm-0.1 20.5q-0.5 0-0.9-0.1l0.9 0.9z"/>
			</g>
			<g id="&lt;Group&gt;">
				<path id="&lt;Compound Path&gt;" fill-rule="evenodd" class="s0" d="m556.8 326l-26.2 0.5-13.4 0.3c-4.4 0.1-8.9 0-13.4 0.1h-0.8v-0.9l-0.2-22.4v-1h1l26.5 0.1c8.8 0 17.7 0.3 26.5 0.4h0.6l-0.1 0.5c0 3.8-0.1 7.6-0.2 11.3zm0 0l-0.3-11.3c-0.1-3.5-0.2-7-0.3-10.5-8.6 0.1-17.2 0.3-25.9 0.3l-25.5 0.1-0.1 20.5c4.1 0.1 8.1 0 12.2 0.1l13.2 0.3zm-0.6-21.9q0.3 0 0.6 0l-0.6-0.5q0 0.3 0 0.5zm-51.4 0.5v-1l-1 1zm-0.1 20.5q-0.4 0-0.9 0l0.9 0.9z"/>
			</g>
			<g id="&lt;Group&gt;">
				<path id="&lt;Compound Path&gt;" fill-rule="evenodd" class="s0" d="m527.4 297.8l-26.3 0.5-13.3 0.2c-4.4 0.1-8.9 0.1-13.4 0.2h-0.9v-0.9l-0.1-22.4v-1h1l26.5 0.1c8.8 0 17.6 0.2 26.5 0.3h0.5v0.6c0 3.8-0.2 7.6-0.2 11.3zm0 0l-0.3-11.3c-0.1-3.6-0.2-7.1-0.3-10.5-8.6 0.1-17.3 0.3-25.9 0.3l-25.5 0.1-0.1 20.5c4.1 0 8.1 0 12.2 0.1l13.1 0.2zm-0.5-21.8q0.3 0 0.5 0l-0.5-0.5q0 0.2 0 0.5zm-51.4 0.5v-1l-1 1zm-0.1 20.5q-0.5 0-0.9-0.1l0.9 0.9z"/>
			</g>
			<g id="&lt;Group&gt;">
				<path id="&lt;Compound Path&gt;" fill-rule="evenodd" class="s0" d="m937.3 622.3l-26.2 0.6-13.4 0.2c-4.4 0.1-8.9 0.1-13.3 0.1h-0.9v-0.9l-0.1-22.3v-1.1l1 0.1 26.4 0.1c8.9 0 17.7 0.2 26.5 0.3h0.6v0.6c-0.1 3.8-0.2 7.5-0.3 11.3zm0 0l-0.3-11.3c-0.1-3.6-0.2-7.1-0.2-10.6-8.7 0.1-17.3 0.3-26 0.4l-25.5 0.1-0.1 20.5c4.1 0 8.2 0 12.2 0.1l13.2 0.2zm-0.5-21.8q0.2 0 0.5 0l-0.6-0.6q0 0.3 0.1 0.6zm-51.5 0.4v-1l-1 1zm-0.1 20.5q-0.4 0-0.9 0l0.9 0.9z"/>
			</g>
			<g id="&lt;Group&gt;">
				<path id="&lt;Compound Path&gt;" fill-rule="evenodd" class="s0" d="m907.8 116.1l-26.3 0.6-13.3 0.2c-4.4 0.1-8.9 0.1-13.4 0.1h-0.9v-0.9l-0.1-22.4v-1h1l26.5 0.2c8.8 0 17.6 0.2 26.5 0.3h0.5v0.5c0 3.8-0.2 7.6-0.2 11.3zm0 0l-0.3-11.3c-0.1-3.5-0.2-7-0.3-10.5-8.6 0.1-17.3 0.3-25.9 0.3l-25.5 0.2-0.1 20.5c4.1 0 8.1 0 12.2 0.1l13.1 0.2zm-0.5-21.8q0.3 0 0.5-0.1l-0.5-0.5q0 0.3 0 0.6zm-51.4 0.4v-1l-1 1zm-0.1 20.5q-0.5 0-0.9 0l0.9 0.9z"/>
			</g>
			<g id="&lt;Group&gt;">
				<path id="&lt;Compound Path&gt;" fill-rule="evenodd" class="s0" d="m937.3 144.3l-26.2 0.6-13.4 0.2c-4.4 0.1-8.9 0.1-13.3 0.1h-0.9v-0.9l-0.1-22.3v-1.1l1 0.1 26.4 0.1c8.9 0 17.7 0.2 26.5 0.3h0.6v0.6c-0.1 3.7-0.2 7.5-0.3 11.3zm0 0l-0.3-11.3c-0.1-3.6-0.2-7.1-0.2-10.6-8.7 0.1-17.3 0.3-26 0.4l-25.5 0.1-0.1 20.5c4.1 0 8.2 0 12.2 0.1l13.2 0.2zm-0.5-21.8q0.2 0 0.5 0l-0.6-0.6q0 0.3 0.1 0.6zm-51.5 0.4v-1l-1 1zm-0.1 20.5q-0.4 0-0.9 0l0.9 0.9z"/>
			</g>
			<g id="&lt;Group&gt;">
				<path id="&lt;Compound Path&gt;" fill-rule="evenodd" class="s0" d="m145.2 116.1l-26.3 0.6-13.3 0.2c-4.4 0.1-8.9 0.1-13.4 0.1h-0.9v-0.9l-0.1-22.4v-1h1l26.5 0.2c8.8 0 17.7 0.2 26.5 0.3h0.5v0.5c0 3.8-0.1 7.6-0.2 11.3zm0 0l-0.3-11.3c-0.1-3.5-0.2-7-0.3-10.5-8.6 0.1-17.3 0.3-25.9 0.3l-25.5 0.2-0.1 20.5c4.1 0 8.1 0 12.2 0.1l13.2 0.2zm-0.6-21.8q0.3 0 0.6-0.1l-0.6-0.5q0 0.3 0 0.6zm-51.4 0.4v-1l-1 1zm-0.1 20.5q-0.4 0-0.9 0l0.9 0.9z"/>
			</g>
		</g>
		<g id="&lt;Group&gt;">
			<path id="&lt;Path&gt;" class="s0" d="m82.4 605.5h474.8l9.8-194.8h-494.5z"/>
			<g id="&lt;Group&gt;">
				<path id="&lt;Compound Path&gt;" fill-rule="evenodd" class="s1" d="m534.7 499.9h-198.5l-3.7-67.6h206.5zm-196.2-2.4h194l4-62.8h-201.5z"/>
				<path id="&lt;Compound Path&gt;" fill-rule="evenodd" class="s1" d="m531 577.7h-187l-3.1-61h193.9zm-184.7-2.4h182.5l3.5-56.3h-188.8z"/>
				<path id="&lt;Compound Path&gt;" fill-rule="evenodd" class="s1" d="m454.5 473.4h-33.3l-2.1-16.3h37.5zm-31.2-2.4h29.1l1.5-11.5h-32.1z"/>
				<path id="&lt;Compound Path&gt;" fill-rule="evenodd" class="s1" d="m454.5 555.3h-33.3l-2.1-16.3h37.5zm-31.2-2.4h29.1l1.5-11.5h-32.1z"/>
			</g>
			<g id="&lt;Group&gt;">
				<path id="&lt;Compound Path&gt;" fill-rule="evenodd" class="s1" d="m301.2 499.9h-198.5l-3.7-67.6h206.6zm-196.3-2.4h194l4-62.8h-201.4z"/>
				<path id="&lt;Compound Path&gt;" fill-rule="evenodd" class="s1" d="m297.5 577.7h-187l-3-61h193.9zm-184.8-2.4h182.5l3.5-56.3h-188.8z"/>
				<path id="&lt;Compound Path&gt;" fill-rule="evenodd" class="s1" d="m221.1 473.4h-33.4l-2.1-16.3h37.6zm-31.3-2.4h29.2l1.5-11.5h-32.1z"/>
				<path id="&lt;Compound Path&gt;" fill-rule="evenodd" class="s1" d="m221.1 555.3h-33.4l-2.1-16.3h37.6zm-31.3-2.4h29.2l1.5-11.5h-32.1z"/>
			</g>
			<g id="&lt;Group&gt;">
				<path id="&lt;Path&gt;" class="s0" d="m125 605.5l-3 21.3-6 42.6h-11.7v-63.9z"/>
				<path id="&lt;Path&gt;" class="s1" d="m125 605.5l-3 21.3h-17.7v-21.3z"/>
			</g>
			<g id="&lt;Group&gt;">
				<path id="&lt;Path&gt;" class="s0" d="m514.6 605.5l3 21.3 6 42.6h11.7v-63.9z"/>
				<path id="&lt;Path&gt;" class="s1" d="m514.6 605.5l3 21.3h17.7v-21.3z"/>
			</g>
		</g>
		<g id="&lt;Group&gt;">
			<g id="&lt;Group&gt;">
				<path id="&lt;Path&gt;" class="s2" d="m212.4 410.7v-143.7h36.2v143.7z"/>
				<path id="&lt;Path&gt;" class="s1" d="m212.4 275.1v-15.8h36.2v15.8z"/>
				<path id="&lt;Path&gt;" class="s1" d="m212.4 301.2v-5.8h36.2v5.8z"/>
				<path id="&lt;Path&gt;" class="s1" d="m212.4 391.8v-15.8h36.2v15.8z"/>
			</g>
			<g id="&lt;Group&gt;">
				<path id="&lt;Path&gt;" class="s1" d="m248.6 410.7v-167.6h25.3v167.6z"/>
				<path id="&lt;Path&gt;" class="s0" d="m253.5 323.3v-64.4h15.2v64.4z"/>
			</g>
			<g id="&lt;Group&gt;">
				<path id="&lt;Path&gt;" class="s2" d="m436.2 410.5l-119.2-117.8 17.8-18 119.1 117.8z"/>
				<path id="&lt;Path&gt;" class="s1" d="m411.8 379.2l-45.8-45.3 10.6-10.8 45.9 45.3z"/>
			</g>
			<g id="&lt;Group&gt;">
				<path id="&lt;Path&gt;" class="s3" d="m273.8 410.7v-127.3h43v127.3z"/>
				<path id="&lt;Path&gt;" class="s2" d="m273.8 397.2v-11.9h43v11.9z"/>
				<path id="&lt;Path&gt;" class="s2" d="m273.8 377.5v-4.6h43v4.6z"/>
			</g>
			<g id="&lt;Group&gt;">
				<path id="&lt;Path&gt;" class="s3" d="m138.2 399l47.2-109.9 27.2 11.7-47.1 109.9z"/>
				<path id="&lt;Path&gt;" class="s2" d="m143.2 387.4l4.4-10.2 27.3 11.6-4.4 10.3z"/>
				<path id="&lt;Path&gt;" class="s2" d="m171.3 322l4.4-10.2 27.2 11.7-4.4 10.2z"/>
				<path id="&lt;Path&gt;" class="s2" d="m166.6 333l1.7-3.9 27.2 11.7-1.7 3.9z"/>
			</g>
		</g>
		<g id="&lt;Group&gt;">
			<path id="&lt;Compound Path&gt;" fill-rule="evenodd" class="s0" d="m884.6 85.4v294.5h-292.8v-294.5zm-7.8 7.8h-277.3v279h277.3z"/>
			<path id="&lt;Path&gt;" class="s4" d="m876.9 93.2v279h-131.8v-277h-7.7v277h-137.9v-279z"/>
			<path id="&lt;Path&gt;" class="s0" d="m745.1 95.2v280.8h-7.7v-280.8z"/>
			<g id="&lt;Group&gt;">
				<g id="&lt;Group&gt;">
					<path id="&lt;Path&gt;" class="s0" d="m584.8 111.8h306.8v-10.8h-306.8z"/>
					<path id="&lt;Path&gt;" class="s0" d="m584.8 123.9h306.8v-10.8h-306.8z"/>
					<path id="&lt;Path&gt;" class="s0" d="m584.8 136h306.8v-10.8h-306.8z"/>
					<path id="&lt;Path&gt;" class="s0" d="m584.8 148.1h306.8v-10.8h-306.8z"/>
					<path id="&lt;Path&gt;" class="s0" d="m584.8 160.2h306.8v-10.8h-306.8z"/>
					<path id="&lt;Path&gt;" class="s0" d="m584.8 172.3h306.8v-10.8h-306.8z"/>
					<path id="&lt;Path&gt;" class="s0" d="m584.8 184.4h306.8v-10.8h-306.8z"/>
					<path id="&lt;Path&gt;" class="s0" d="m584.8 196.5h306.8v-10.8h-306.8z"/>
					<path id="&lt;Path&gt;" class="s0" d="m584.8 208.6h306.8v-10.8h-306.8z"/>
				</g>
				<g id="&lt;Group&gt;">
					<g id="&lt;Group&gt;">
						<path id="&lt;Path&gt;" class="s5" d="m607.7 258.4h1.9v-159.5h-1.9z"/>
						<path id="&lt;Path&gt;" class="s5" d="m605.2 267.4h6.9l-1.7-9.8h-3.4z"/>
					</g>
					<g id="&lt;Group&gt;">
						<path id="&lt;Path&gt;" class="s5" d="m600.8 369.1h1.9v-270.2h-1.9z"/>
						<path id="&lt;Path&gt;" class="s5" d="m598.3 376.4h6.8l-1.7-9.9h-3.4z"/>
					</g>
				</g>
				<path id="&lt;Path&gt;" class="s1" d="m572.8 106.4h330.8v-22.5h-330.8z"/>
			</g>
		</g>
	</g>
	<g id="Shadow">
		<path id="&lt;Path&gt;" class="s0" d="m761.9 869.5c0 27-117.3 48.9-261.9 48.9-144.6 0-261.9-21.9-261.9-48.9 0-27 117.3-48.9 261.9-48.9 144.6 0 261.9 21.9 261.9 48.9z"/>
	</g>
	<g id="Floor">
		<g id="&lt;Group&gt;">
			<path id="&lt;Path&gt;" class="s5" d="m61.2 669.4l109.7-0.5 109.7-0.2 219.4-0.3 219.4 0.3 109.7 0.2 109.7 0.5-109.7 0.5-109.7 0.2-219.4 0.3-219.4-0.3-109.7-0.2z"/>
		</g>
	</g>
	<g id="Plant">
		<g id="&lt;Group&gt;">
			<g id="&lt;Group&gt;">
				<g id="&lt;Group&gt;">
					<g id="&lt;Group&gt;">
						<path id="&lt;Path&gt;" class="s5" d="m883 402c-9.2-9-21.1-19.9-35.2-16-13.2 3.6-18.3 18.1-20.6 30.1-3.1 15.5-5.5 31.2-7.9 46.8-2.5 15.8-4.9 31.6-7.1 47.4q-1.9 13.3-3.8 26.7-1 6.7-1.9 13.4c-0.6 4.4-1.3 8.8-1.6 13.2 0 1.4 2.2 1.6 2.5 0.2 1.7-7.4 2.4-15.1 3.5-22.7q1.6-11.4 3.3-22.8c2.2-15.1 4.5-30.1 6.8-45.2q3.4-22.6 7-45.2c2-12.8 3-28.7 14.3-37.1 6.2-4.6 14.2-4.7 21.2-2 7.4 2.8 13.4 8.2 19.2 13.5 0.2 0.1 0.5-0.2 0.3-0.3z"/>
						<g id="&lt;Group&gt;">
							<path id="&lt;Path&gt;" class="s6" d="m870.4 392.8c0 0-18.8-6.8-28.1 6.9-9.3 13.7 1.8 48.7 87.5 68.4 0 0-2.3-37.4-20.6-77.5-18.4-40-51.1-24.8-38.8 2.2z"/>
							<g id="&lt;Group&gt;">
								<path id="&lt;Path&gt;" class="s5" d="m924.8 462.3c-1.1-2.4-2.8-4.6-4.3-6.9q-2.1-3.3-4.3-6.6-1.7-2.5-3.4-4.9c0.1-0.4 0.1-0.8 0.2-1.2q0.2-1.1 0.3-2.2 0.3-2.5 0.7-4.9 0.3-2.4 0.8-4.7c0.3-1.7 0.5-3.6 1.1-5.1 0.1-0.2-0.3-0.4-0.4-0.1-0.1 1-0.5 2-0.7 2.9q-0.3 1.1-0.6 2.1-0.6 2.5-1.2 4.9-0.5 2.3-0.9 4.6-0.2 1.1-0.3 2.2-2.3-3.3-4.7-6.5c-4.5-6-9.3-11.7-14.3-17.4 0 0 0.1 0 0.1-0.1 0.4-9 0.2-17.9 2.2-26.8 0-0.2-0.3-0.3-0.4-0.1-1.9 8.3-3.7 17-3.2 25.6q-2.7-3-5.4-5.9-6.3-6.8-12.8-13.3c-0.1-0.1-0.4 0.1-0.2 0.3 7.2 7.8 14 15.9 20.7 24.1-5.2-0.2-10.5 0.2-15.7 0.6-5.8 0.4-11.5 1.2-17.3 2-0.2 0-0.2 0.4 0.1 0.3 5.7-0.8 11.5-1.3 17.3-1.5 5.6-0.2 11.1 0 16.7 0q5.4 6.7 10.7 13.5-0.4 0-0.8 0-1.9-0.1-3.9 0c-2.6 0-5.2 0.2-7.8 0.4-5.3 0.5-10.6 1.2-15.8 2.4-0.3 0-0.2 0.4 0 0.4 5.3-0.6 10.6-1.1 15.9-1.3 2.5-0.1 5-0.1 7.5-0.1q2 0 4 0c0.8 0 1.5 0.1 2.1-0.2q3.5 4.5 6.9 9 2.8 3.6 5.4 7.2c1.8 2.5 3.4 5.2 5.4 7.6 0.2 0.1 0.4-0.1 0.3-0.3z"/>
								<path id="&lt;Path&gt;" class="s5" d="m878.6 412.2c-3-0.5-6.1-0.4-9.2-0.4-3 0-6.1 0.1-9.1 0.2-0.3 0-0.3 0.4 0 0.3 3.1-0.2 6.2-0.2 9.3-0.2 3 0.1 6 0.3 9 0.3 0.1 0 0.1-0.2 0-0.2z"/>
								<path id="&lt;Path&gt;" class="s5" d="m905.5 419.1c0.3-2.9 0.7-5.8 1.3-8.7 0.1-0.3-0.3-0.4-0.4-0.1-0.4 2.9-1 5.7-1.4 8.6q-0.3 2.2-0.6 4.3c-0.1 1.4-0.4 2.8-0.3 4.1 0 0.3 0.4 0.3 0.5 0.1 0.3-1.3 0.3-2.8 0.4-4.1q0.2-2.1 0.5-4.2z"/>
								<path id="&lt;Path&gt;" class="s5" d="m899.8 386.7c-0.7 2.9-1.4 5.7-2 8.6q-0.4 2.2-0.7 4.5c-0.2 1.4-0.4 2.9-0.3 4.3 0.1 0.1 0.2 0.1 0.3 0 0.4-1.3 0.5-2.8 0.6-4.1q0.3-2.2 0.7-4.3c0.5-3 1.1-5.9 1.8-8.9 0.1-0.2-0.3-0.3-0.4-0.1z"/>
							</g>
						</g>
					</g>
					<g id="&lt;Group&gt;">
						<path id="&lt;Path&gt;" class="s5" d="m788.3 560.4q-0.7-8.1-1.5-16.2-1.7-16-3.9-31.9c-1.4-10.6-2.8-21.2-4.5-31.8-0.8-4.8-1.6-9.8-3.3-14.4-1.4-4-3.8-7.6-8-9-10-3.5-16.8 6.9-20.9 14.3-0.1 0.2 0.2 0.4 0.3 0.2 2.5-3.5 9.2-13.3 16.9-12.9 5.1 0.3 9.2 4 11.7 16.8 6.1 32 11.7 96.8 12.3 101.1 0.4 2.2 2 2.1 2-0.3 0-5.3-0.6-10.6-1.1-15.9z"/>
						<path id="&lt;Path&gt;" class="s6" d="m748.9 467.5c0 0 8.8-31.1-10.6-15.6-32.5 25.9-33.6 82.2-33.6 82.2 0 0 57.6-33.5 64.8-55.5 10.6-32.9-20.6-11.1-20.6-11.1z"/>
						<g id="&lt;Group&gt;">
							<path id="&lt;Path&gt;" class="s5" d="m759.8 482.7c-4.5 0.9-9.1 1.5-13.6 2.2q-3.3 0.5-6.5 0.9c-1.5 0.2-3 0.3-4.4 0.5 4.3-5.9 8.6-11.8 12.7-17.8 0.2-0.2-0.2-0.5-0.4-0.3-3.4 3.5-6.6 7.2-9.6 11.1q-1.3-3.6-2.6-7.2c-1-2.8-2-5.6-2.7-8.4-0.1-0.3-0.4-0.2-0.4 0.1 0.8 2.8 1.4 5.7 2.1 8.6q1.1 4.1 2.6 8.2-3.2 4.1-6.1 8.4c-1-2.9-2.2-5.6-3.1-8.4-0.1-0.3-0.5-0.2-0.4 0.1 1 3.1 1.6 6.4 2.6 9.6-1.3 1.9-2.7 3.9-3.9 5.8-2.4 3.6-4.6 7.3-6.7 11-0.3 0.1-0.5 0.4-0.5 0.8-3.6 6.3-7.1 12.7-10.5 19.2-0.1 0.2 0.2 0.4 0.3 0.1 3.4-6.3 7.2-12.5 11.2-18.6q0 0 0 0c0.5-0.2 1.4-0.3 1.9-0.4q1-0.2 2-0.4c1.5-0.3 3-0.7 4.5-1.1 2.9-0.7 5.8-1.4 8.7-1.9 0.3-0.1 0.2-0.4-0.1-0.4-3.5 0.7-7 1.1-10.5 1.5q-2.5 0.3-5 0.6-0.1 0.1-0.2 0.1 3.1-4.7 6.3-9.4 3.2-4.5 6.4-9c2-0.3 4-0.8 6-1.2q3.3-0.6 6.7-1.3c4.4-0.9 8.9-1.9 13.3-2.6 0.3-0.1 0.2-0.4-0.1-0.4z"/>
							<path id="&lt;Path&gt;" class="s5" d="m725.2 485.8q-0.4-1.3-0.8-2.5c-0.5-1.7-0.9-3.4-1.3-5.2 0-0.2-0.4-0.1-0.4 0.1q0.6 2.6 1.2 5.3c0.4 1.7 0.9 3.5 1.5 5.1 0.2 0.4 0.8 0.3 0.7-0.2-0.3-0.9-0.6-1.7-0.9-2.6z"/>
							<path id="&lt;Path&gt;" class="s5" d="m765.7 475.5c-2.6 0.4-5.3 0.6-7.9 0.8-2.7 0.3-5.3 0.6-7.9 1-0.2 0-0.2 0.3 0 0.3 2.6-0.2 5.3-0.4 7.9-0.8 2.6-0.3 5.3-0.7 7.9-0.9 0.3 0 0.3-0.4 0-0.4z"/>
						</g>
					</g>
					<g id="&lt;Group&gt;">
						<path id="&lt;Path&gt;" class="s5" d="m830.7 521c-1-22.9-2.5-45.7-4.8-68.5-1.1-11.4-2.4-22.7-4-34-1.6-11.1-3.5-22.2-6.5-33-2.4-8.2-5.5-16.5-11-23.2-5.4-6.6-13.4-10.7-22.1-9.6-10.1 1.2-18.1 7.5-25.1 14.4-7.8 7.7-15 16.1-22.3 24.3q-2.7 3.1-5.4 6.3c-0.2 0.2 0.1 0.5 0.3 0.3 7-8.2 14.4-16.1 22.1-23.7 7.1-7 14.5-14.6 24.4-17.5 4.5-1.3 9.5-1.7 14.1-0.3 3.7 1.1 7 3.3 9.6 6.1 5.6 5.8 8.7 13.6 10.9 21.2 6.2 21 8.4 43.1 10.7 64.8 2.3 22.1 3.9 44.2 5 66.4 1.1 22.3 2 44.6 4.1 66.9 0.3 2.7 0.6 5.4 1 8.2 0.2 1.8 3.1 1.8 2.9-0.1-1.8-23-2.9-46-3.9-69z"/>
						<g id="&lt;Group&gt;">
							<path id="&lt;Path&gt;" class="s6" d="m755.9 369.6c0 0 13.1-24.2-2.3-32-15.5-7.8-67.2 50-82.3 134.4 0 0 83.5-37 111.9-73.8 28.3-36.8-3.8-44.9-27.3-28.6z"/>
							<g id="&lt;Group&gt;">
								<path id="&lt;Path&gt;" class="s5" d="m768.2 389.2c-9.4 0.1-18.7-0.7-28.1-0.6q2.6-3 5.3-6c2.4-2.8 5.2-5.5 7.3-8.6 0.1-0.2-0.2-0.4-0.3-0.3-2.6 2.1-4.9 4.7-7.1 7.1q-3.6 3.8-7.1 7.6c-3.6 3.8-7.1 7.8-10.6 11.7q0-0.5 0-1.1 0-2.5 0-4.9 0.1-4.8 0.1-9.6c0.1-6.4 0.1-12.9 0.5-19.4 0-0.2-0.4-0.2-0.4 0.1-0.4 6.4-1.1 12.9-1.4 19.4q-0.2 4.7-0.3 9.5 0 2.5 0 4.9c0 0.9 0 1.9 0 2.8q-0.8 0.9-1.6 1.8c-7.5 8.6-14.6 17.5-21.6 26.5 0-0.5-0.1-1-0.1-1.5q-0.2-1.5-0.3-3-0.4-3.2-0.9-6.4-0.4-3.1-0.9-6.1c-0.4-2.2-1-4.5-1.2-6.8 0-0.3-0.4-0.2-0.3 0.1 0.4 2.2 0.5 4.6 0.8 6.8q0.2 3.1 0.5 6.2 0.3 3.1 0.6 6.2 0.2 1.5 0.3 3 0.1 0.8 0.2 1.5c0.1 0.7 0.2 0.7 0.4 1.2q-1.8 2.3-3.6 4.6c-4.7 6.3-9.4 12.6-14 19-0.2 0.2 0.1 0.4 0.3 0.2 4.4-5.7 8.9-11.3 13.5-16.9 3.4 0.1 6.9-0.1 10.4-0.2q5.4-0.1 10.8-0.1c0.3 0 0.3-0.4 0-0.4q-5.4 0.1-10.8 0.2c-3.3 0-6.7-0.2-10 0q6.1-7.4 12.2-14.7 2.2-2.6 4.5-5.3c1.3 0.3 2.8 0.2 4.2 0.2q2.4 0 4.9 0c3.1 0 6.2-0.1 9.3-0.2 6.3-0.1 12.7-0.3 19.1-0.3 0.3 0 0.2-0.4 0-0.4-6.4-0.1-12.8-0.3-19.2-0.5-3-0.1-6.1-0.2-9.2-0.2q-2.5 0-5-0.1c-0.9 0-1.9 0-2.8 0q5.2-6.3 10.5-12.5 0.1-0.1 0.2-0.2 5.1-6.1 10.3-12.1 0.7-0.8 1.4-1.6c9.8 0.3 19.5-0.4 29.2-0.2 0.3 0 0.3-0.4 0-0.4z"/>
								<path id="&lt;Path&gt;" class="s5" d="m763.4 405.8q-1.1 0.1-2.3 0.1c-0.2 0-0.2 0.3 0 0.3q1.2 0 2.3 0c0.3 0 0.3-0.4 0-0.4z"/>
								<path id="&lt;Path&gt;" class="s5" d="m758.4 405.9q-4.6-0.1-9.1-0.2-2.2-0.1-4.5-0.2c-1.3 0-2.9-0.2-4.2 0.1-0.1 0-0.1 0.2 0 0.3 1.3 0.4 2.9 0.2 4.2 0.3q2.3 0 4.5 0 4.6 0.1 9.1 0.1c0.2 0 0.2-0.4 0-0.4z"/>
								<path id="&lt;Path&gt;" class="s5" d="m732.1 434.1c-6.1-0.9-12.3-1.8-18.5-1.7-0.1 0-0.1 0.1 0 0.1 6.2 0.6 12.3 0.9 18.4 1.9 0.2 0.1 0.3-0.3 0.1-0.3z"/>
								<path id="&lt;Path&gt;" class="s5" d="m707 407.2q-0.1-0.8-0.2-1.6-0.2-1.8-0.5-3.6-0.6-3.5-1.2-6.9c-0.1-0.2-0.4-0.2-0.4 0.1q0.4 3.5 0.7 7 0.2 1.8 0.3 3.5c0.1 1.1 0 2.4 0.5 3.3 0.2 0.4 0.7 0.3 0.8-0.1 0.2-0.6 0.1-1.1 0-1.7z"/>
							</g>
						</g>
					</g>
					<g id="&lt;Group&gt;">
						<path id="&lt;Path&gt;" class="s5" d="m829.9 338.5c-3-5.6-6.8-12.9-14.3-12.5-6.1 0.4-8.9 6.7-10.2 11.9-4.1 16.1-4.4 33-5.2 49.5-1.6 34.8-3.1 69.7-3.4 104.5q0 14.5 0.1 29c0.1 9.9 0.1 19.8 0.7 29.6 0.1 0.9 1.4 0.9 1.4 0 0.1-8.5-0.2-16.9-0.2-25.3q-0.1-12.4 0.1-24.7 0.4-25 1.4-50c0.6-16.5 1.3-33.1 2-49.6q0.5-12.4 1.1-24.8c0.3-8 0.7-16 1.6-24 0.5-4.5 1.2-8.9 2.1-13.3 0.7-3.2 1.6-6.5 3.9-9 2.9-3.1 7.4-2.9 10.8-0.7 3.7 2.2 5.9 5.9 7.8 9.6 0.1 0.2 0.4 0 0.3-0.2z"/>
						<g id="&lt;Group&gt;">
							<path id="&lt;Path&gt;" class="s6" d="m827.9 335.8c0 0-6.2-21.6 7.4-10.8 22.6 18 23.4 57.3 23.4 57.3 0 0-40.2-23.4-45.1-38.7-7.5-22.9 14.3-7.8 14.3-7.8z"/>
							<g id="&lt;Group&gt;">
								<path id="&lt;Path&gt;" class="s5" d="m850.2 366.2q-0.5-0.9-1.1-1.8c0.1-0.6 0-1.3 0-1.9q0-1.3 0-2.7 0.1-2.8 0.2-5.5c0-0.3-0.4-0.3-0.4 0q-0.1 2.7-0.2 5.4 0 1.3-0.1 2.7c0 0.3 0 0.7-0.1 1.1q-2.3-3.7-4.8-7.2-0.8-1.1-1.5-2.1c-0.4-2.3-0.2-4.7-0.1-7.1q0-3.7 0.1-7.5c0-0.3-0.4-0.2-0.4 0q-0.1 3.9-0.3 7.9c-0.1 1.8-0.3 3.7-0.2 5.6-3.8-5.3-8-10.4-12.1-15.4-0.2-0.2-0.5 0-0.3 0.2 2.6 3.3 5 6.6 7.5 10-4.8-1.1-9.6-1.7-14.4-2.4-0.2-0.1-0.3 0.3-0.1 0.3 5.1 0.8 10.1 2.1 15.1 3.2 0.1 0 0.1 0 0.1 0q2.9 4 5.7 8.1 1.2 1.7 2.3 3.4-0.1 0-0.2-0.1-0.8-0.1-1.6-0.2-1.6-0.2-3.3-0.3c-2.3-0.2-4.6-0.3-7-0.4-0.2 0-0.2 0.4 0.1 0.4q3.4 0.1 6.8 0.5 1.8 0.2 3.6 0.4 0.7 0.1 1.5 0.2 0.3 0 0.5 0 1.9 2.9 3.8 5.7c2.3 3.4 4.3 7 6.8 10.2 0.1 0.2 0.4 0 0.3-0.2-1.7-3.6-4.1-7.1-6.2-10.5z"/>
								<path id="&lt;Path&gt;" class="s5" d="m840.2 341.7q0.1-1.3 0.1-2.5c0-1.8-0.1-3.6 0.2-5.3 0-0.3-0.4-0.4-0.4-0.1 0 1.8-0.2 3.5-0.3 5.3q0 1.3 0 2.6 0 0.6 0 1.2c0 0.4-0.1 0.9 0.1 1.3 0 0.2 0.2 0.1 0.3 0 0.1-0.4 0.1-0.8 0.1-1.2q-0.1-0.6-0.1-1.3z"/>
								<path id="&lt;Path&gt;" class="s5" d="m835.3 350.7c-1.5-0.3-3-0.4-4.5-0.5q-2.5-0.2-5-0.5c-0.3 0-0.3 0.4 0 0.4 3.1 0.2 6.3 0.8 9.4 0.9 0.2 0 0.3-0.3 0.1-0.3z"/>
							</g>
						</g>
						<path id="&lt;Path&gt;" class="s5" d="m847.9 350.8c0.1 0.2 0 0.6 0 0.8v0.7q0 0.8 0 1.6 0 0.7 0 1.5c0 0.4-0.1 0.9 0.1 1.3 0 0.1 0.1 0 0.1 0 0.1-0.2 0.1-0.4 0.1-0.6q0-0.4 0-0.7 0-0.8 0-1.5 0-0.8 0-1.6v-0.7c0-0.2-0.1-0.6 0-0.8 0.3-0.3-0.6-0.4-0.3 0z"/>
					</g>
					<g id="&lt;Group&gt;">
						<path id="&lt;Path&gt;" class="s5" d="m830.8 454.1c-8.4-6.4-16-15.5-27.3-15.9-9.4-0.4-16 6.7-19.7 14.5-2 4.2-3.4 8.6-4.6 13q-2.6 8.9-4.8 17.8c-3 11.8-5.5 23.7-7.5 35.6-1.2 6.7-2.2 13.4-3.1 20.1-0.8 6.8-1.9 13.7-1.9 20.6 0 1.1 1.8 1.4 2.1 0.2 1.1-5.6 1.6-11.4 2.4-17.1 0.8-5.7 1.7-11.4 2.7-17.1 1.9-11.3 4.1-22.7 6.7-33.9 2.4-10.6 4.8-21.4 8.2-31.8 2.5-7.4 6.4-16 14.4-18.7 12.2-4 23.2 6.3 32.2 13 0.2 0.1 0.4-0.2 0.2-0.3z"/>
						<g id="&lt;Group&gt;">
							<path id="&lt;Path&gt;" class="s6" d="m822.1 448c0 0-7.8-22.2 3.5-26.6 16.8-6.5 61 43.2 52.3 119.4 0 0-34.1-18.8-59.3-39.9-25.1-21.2-31.6-48.8-20.5-55.9 11.1-7.1 24 3 24 3z"/>
							<g id="&lt;Group&gt;">
								<path id="&lt;Path&gt;" class="s5" d="m872.8 524.5c-1-2.7-2.7-5.2-4.1-7.7q-2.1-3.9-4.4-7.8c-2.9-5-5.8-10-8.8-15q-0.8-1.2-1.5-2.4 0.1-0.4 0.2-0.9 0.2-1.1 0.5-2.2c0.4-1.6 0.7-3.3 1-5 0.6-3.2 1.1-6.5 2-9.7 0.1-0.3-0.3-0.4-0.4-0.1-0.7 3.2-1.7 6.5-2.6 9.6-0.5 1.6-1 3.2-1.4 4.8q-0.3 0.8-0.5 1.6c-3.6-5.9-7.3-11.9-11.3-17.6 0.4-0.7 0.3-1.6 0.4-2.4q0.2-1.7 0.4-3.4c0.3-2.5 0.6-5 1-7.5 0.7-4.9 1.4-9.7 2.6-14.6 0.1-0.2-0.3-0.3-0.3 0-1.2 4.8-2.6 9.6-3.5 14.4-0.4 2.4-0.8 4.8-1.2 7.2q-0.2 1.8-0.4 3.6 0 0.6-0.1 1.1c-1.2-1.7-2.5-3.4-3.7-5.1-3.9-5.1-8-10.1-12.1-15.1-0.1-0.2-0.4 0-0.3 0.2 7.2 8.7 13.2 18.4 19.2 28q1.7 2.7 3.3 5.4-0.5-0.1-1.1-0.2c-1.4-0.1-2.8-0.2-4.3-0.4q-4.3-0.4-8.6-0.7c-5.7-0.5-11.5-0.8-17.2-1.4-0.3-0.1-0.3 0.3-0.1 0.4 5.8 0.6 11.6 1.6 17.4 2.4q4.3 0.6 8.5 1.1c2 0.3 4.5 0.9 6.6 0.7q3.4 5.5 6.8 11c-0.5-0.1-1-0.1-1.5-0.1q-1.5 0-2.9 0-2.7 0-5.4 0c-3.7 0-7.4 0.1-11.1 0.1-0.2 0-0.2 0.4 0.1 0.4 3.7 0 7.5 0.2 11.2 0.4q2.7 0.2 5.3 0.3 1.4 0.1 2.7 0.2c0.8 0.1 1.6 0.2 2.3-0.1q2.9 4.7 5.8 9.4 2.6 4.3 5.4 8.6c1.8 2.8 3.5 6.1 5.8 8.7 0.1 0.1 0.4 0 0.3-0.2z"/>
								<path id="&lt;Path&gt;" class="s5" d="m856.6 462.9c-0.3 2.4-0.9 4.9-1.5 7.3q-1 3.7-2.2 7.3c-0.1 0.3 0.4 0.5 0.5 0.1q1.1-3.6 2-7.2c0.6-2.5 1-5 1.6-7.4 0-0.3-0.4-0.3-0.4-0.1z"/>
								<path id="&lt;Path&gt;" class="s5" d="m831.5 477.8c-0.5-0.5-1.1-0.6-1.8-0.7q-1.6-0.2-3.3-0.4c-1.9-0.3-3.9-0.5-5.9-0.8-4.2-0.5-8.4-0.9-12.5-1.4-0.3 0-0.3 0.4-0.1 0.4 3.9 0.5 7.8 1.1 11.8 1.6 1.9 0.2 3.8 0.5 5.7 0.7q1.4 0.2 2.8 0.3c1 0.2 2.2 0.1 3.1 0.6 0.2 0.1 0.4-0.2 0.2-0.3z"/>
								<path id="&lt;Path&gt;" class="s5" d="m856.5 511.3c-1.9-0.2-3.9-0.2-5.9-0.3q-1.5 0-3-0.1-0.7 0-1.4 0c-0.6-0.1-1.3 0-1.8-0.1-0.3-0.1-0.3 0.4-0.1 0.3 0.6-0.1 1.2 0.1 1.8 0.1q0.8 0 1.5 0.1 1.5 0.1 3 0.2c2 0.1 3.9 0.2 5.9 0.2 0.2 0 0.3-0.4 0-0.4z"/>
								<path id="&lt;Path&gt;" class="s5" d="m868.5 502.8q0.4-1.7 0.7-3.4 0.6-3.3 1.2-6.6c0-0.2-0.3-0.3-0.4 0q-0.7 3.2-1.4 6.4-0.4 1.6-0.7 3.2-0.2 0.7-0.3 1.5c-0.1 0.5-0.3 1-0.2 1.5 0 0.2 0.3 0.4 0.4 0.2 0.5-0.8 0.6-1.9 0.7-2.8z"/>
							</g>
						</g>
					</g>
				</g>
			</g>
			<g id="&lt;Group&gt;">
				<g id="&lt;Group&gt;">
					<path id="&lt;Path&gt;" class="s7" d="m753.1 551.2l2.4 27 8 91.2h71.4l10.1-91.2 3-27z"/>
					<path id="&lt;Path&gt;" class="s5" d="m753.1 551.2l2.4 27h89.5l3-27z"/>
				</g>
				<path id="&lt;Path&gt;" class="s7" d="m746 565.8h109.1v-21.9h-109.1z"/>
			</g>
		</g>
	</g>
	<g id="Cat">
		<g id="&lt;Group&gt;">
			<g id="&lt;Group&gt;">
				<path id="&lt;Path&gt;" class="s6" d="m281.8 561c-4.2 5.1-7.9 139.5-2.9 156 5 16.6 36.6 47 37.8 51.3 1.2 4.4 0.5 10.6 0 12.6-0.5 1.9-10.4 10.2-13.7 14.2-1.7 2-4.6 17.3-2 18.5 2.7 1.3 22.2-0.2 28-5.7 5.8-5.6 20.6-28.5 21.9-32.1 1.3-3.6-2.5-28.7-3.6-33.7-1-5.1 32.6-76.9 32.6-102.3 0.1-25.4-89.3-89.6-98.1-78.8z"/>
				<g id="&lt;Group&gt;">
					<path id="&lt;Path&gt;" class="s5" d="m321.3 795c0.2-0.1 0.3 0 0.2 0.2-1.9 3.1-3.7 6.4-5.3 9.7-1.4 3-2.7 6.1-2 9.5 0 0.2-0.3 0.3-0.4 0.1-0.9-3.2-1-6.9 0.2-10.1 1.4-3.8 4.5-6.6 7.3-9.4z"/>
					<path id="&lt;Path&gt;" class="s5" d="m310.5 794.8c0.1-0.1 0.3 0 0.2 0.1-1.4 2.5-2.9 5.7-4.6 9.6-1.2 2.8-3.4 7.1-1.2 9.8 0.3 0.5 0 0.7-0.4 0.3-2.8-2.4-1.8-6.8-0.8-9.8 1.4-3.9 3.9-7.1 6.8-10z"/>
				</g>
			</g>
			<g id="&lt;Group&gt;">
				<g id="&lt;Group&gt;">
					<path id="&lt;Path&gt;" class="s6" d="m494.2 554.6c4.2 5.2 7.9 139.6 2.9 156.1-5 16.6-36.6 47-37.8 51.3-1.2 4.4-0.4 10.6 0 12.6 0.5 1.9 11.4 11.4 13.8 14.2 3.3 4 6.6 15.5 4 16.7-2.7 1.2-26.3 0-30-4-5.6-5.7-20.7-28.4-22-32-1.3-3.6 2.6-28.7 3.6-33.8 1-5-32.5-76.8-32.6-102.2 0-25.4 89.4-89.6 98.1-78.9z"/>
				</g>
				<g id="&lt;Group&gt;" style="opacity: .1">
					<path id="&lt;Path&gt;" class="s8" d="m494.2 554.6c4.2 5.2 7.9 139.6 2.9 156.1-5 16.6-36.6 47-37.8 51.3-1.2 4.4-0.4 10.6 0 12.6 0.5 1.9 11.4 11.4 13.8 14.2 3.3 4 6.6 15.5 4 16.7-2.7 1.2-26.3 0-30-4-5.6-5.7-20.7-28.4-22-32-1.3-3.6 2.6-28.7 3.6-33.8 1-5-32.5-76.8-32.6-102.2 0-25.4 89.4-89.6 98.1-78.9z"/>
				</g>
				<g id="&lt;Group&gt;">
					<path id="&lt;Path&gt;" class="s5" d="m454.1 787.6c-0.1 0-0.2 0.1-0.2 0.2 2.2 3 4.2 6.1 6 9.4 1.7 2.9 3.1 5.9 2.7 9.3 0 0.2 0.3 0.3 0.4 0.1 0.7-3.3 0.5-6.9-0.9-10-1.7-3.8-4.9-6.4-8-9z"/>
					<path id="&lt;Path&gt;" class="s5" d="m464.9 786.7c-0.1-0.1-0.3 0-0.2 0.1 1.6 2.4 3.4 5.5 5.3 9.3 1.3 2.7 3.9 6.8 1.9 9.7-0.3 0.5 0 0.6 0.4 0.2 2.6-2.6 1.4-6.8 0.1-9.8-1.6-3.8-4.4-6.8-7.5-9.5z"/>
				</g>
			</g>
			<g id="&lt;Group&gt;">
				<path id="&lt;Path&gt;" class="s6" d="m481.4 774.8c0 0 65.2 42.7 73.4 45.1 8.1 2.4 119.1 51.7 127.6 52.5 3.5 0.4 38.7 3 40.8 1.9 2.2-1.1-9.4-17-17.5-20.8-8.1-3.8-31.6-6-34.7-8-3.1-1.9-70.6-70.3-74.4-76.2-3.9-6-14-61.2-14-61.2z"/>
				<g id="&lt;Group&gt;">
					<path id="&lt;Path&gt;" class="s5" d="m696.9 858.5c-0.1-0.1-0.3 0.1-0.2 0.2 2.5 2.7 4.8 5.6 7 8.6 1.9 2.7 3.7 5.6 3.7 9.1 0 0.2 0.3 0.2 0.3 0 0.4-3.4-0.2-7-1.9-9.9-2.1-3.5-5.6-5.8-8.9-8z"/>
					<path id="&lt;Path&gt;" class="s5" d="m707.5 856.4c-0.1-0.1-0.2 0.1-0.1 0.2 1.8 2.1 3.9 5.1 6.2 8.6 1.6 2.5 4.6 6.3 2.9 9.5-0.3 0.5 0 0.6 0.4 0.1 2.3-2.8 0.6-6.9-0.9-9.7-2-3.7-5.1-6.3-8.5-8.7z"/>
				</g>
				<path id="&lt;Path&gt;" class="s9" d="m595.9 768.1l-86.6 24.7c-15-9.6-27.9-18-27.9-18l101.2-66.7c0 0 9.2 50 13.3 60z"/>
			</g>
			<g id="&lt;Group&gt;">
				<path id="&lt;Path&gt;" class="s6" d="m522.1 660.4c-17-28.1-24.6-144.7-52.6-169.7-16.1-14.4-114.4-89.2-148.1-79.8-11 3-44.7 122.7-38.9 160.3 6.4 42 34.4 109.9 47.3 125.9 12.9 16 90.2 7.7 102.1 14.2 11.9 6.6 90.2-50.9 90.2-50.9z"/>
			</g>
			<g id="&lt;Group&gt;">
				<path id="&lt;Path&gt;" class="s5" d="m325.3 694.7c-0.2-1.3-0.7-2.5-1-3.8-0.7-2.3-1.5-4.6-2.3-6.9-1.6-4.5-3.3-9-5-13.5-3.5-8.9-7.5-17.7-11.5-26.4q-3.4-7.5-6.9-15c-0.1-0.2-0.4-0.1-0.4 0.1 7.1 18 13.4 36.1 20.6 54q1.5 3.7 3.1 7.4 0.8 1.7 1.6 3.3c0.6 1.5 1.6 2.7 2.2 4.2 0.1 0.2 0.4 0.1 0.3-0.1-0.4-1.1-0.5-2.1-0.7-3.3z"/>
				<path id="&lt;Path&gt;" class="s5" d="m288.4 606.4c-1-5.6-0.8-11.1-0.4-16.7q0.7-8.5 1.9-17 1.4-9.5 3.2-18.9c0-0.1-0.2-0.2-0.2-0.1-2.8 11.3-4.9 22.8-6.7 34.3-0.8 5.6-1.5 11.2-0.9 16.8 0.5 5.4 2 10.6 4.1 15.6 2.4 5.5 5.4 10.9 8.5 16 0.1 0.1 0.4 0 0.3-0.1-3.7-9.8-8.1-19.5-9.8-29.9z"/>
			</g>
			<path id="&lt;Path&gt;" class="s6" d="m321 446.8c-9.6-25-45.6-75.3-32.4-135 9.7-44 62.1-107 60.3-138.1-1.5-24.2-59.3-9.2-60.3-37.3-1.2-32.8 66.7-46.1 91.3-5.3 32.1 53.5-46.8 150.9-56.7 201.7-10.5 53.9 15.4 92.9 14.4 95.5-1.1 2.5-16.6 18.5-16.6 18.5z"/>
			<g id="&lt;Group&gt;">
				<path id="&lt;Path&gt;" class="s6" d="m331.2 663.9c0 0-11.5 61.9-0.5 82.8 8.3 16 29.4 69.2 34.4 97.3 0.9 4.6 2.9 13.5 4.2 15.7 1.5 2.4 30.8 10.1 34.2 8.6 1.9-1 1.8-12 0.3-14.5-2-3.7-10.6-10.2-10.8-11.5-0.4-1.9-2.6-63.6-1.8-68.9 0.8-5.4 26.4-47.5 30.2-67.3 3.8-19.9-86.3-48.4-90.2-42.2z"/>
				<g id="&lt;Group&gt;">
					<path id="&lt;Path&gt;" class="s5" d="m384.8 848.9c-0.1-0.1-0.2 0-0.2 0.1 1.9 3.2 3.7 6.4 5.2 9.8 1.5 3 2.7 6.1 2 9.6 0 0.2 0.3 0.2 0.3 0 1-3.2 1.1-6.8 0-10-1.4-3.9-4.4-6.7-7.3-9.5z"/>
					<path id="&lt;Path&gt;" class="s5" d="m395.7 848.7c-0.1-0.1-0.3 0.1-0.2 0.2 1.4 2.4 2.9 5.7 4.5 9.6 1.1 2.8 3.3 7.1 1.1 9.9-0.3 0.4-0.1 0.6 0.4 0.2 2.8-2.4 1.9-6.7 0.9-9.7-1.3-4-3.9-7.2-6.7-10.2z"/>
				</g>
				<g id="&lt;Group&gt;">
					<path id="&lt;Path&gt;" class="s5" d="m344.6 776.8c-0.9-2.4-1.6-4.8-2.5-7.2-1.7-4.8-3.6-9.5-5.5-14.3-1.8-4.5-3.6-9.1-5.5-13.6-1.7-4.5-3.3-9.2-3.9-14-0.5-4.9-0.3-9.9-0.1-14.8q0.4-7.6 1-15.2c0.8-10 1.9-19.9 3.1-29.9 1.4-11.3 2.6-22.6 4.5-33.8 0.1-0.4-0.4-0.5-0.5-0.2q-3.7 15-6.6 30.1c-1.9 9.9-2.7 20-3.6 30q-0.6 7.7-1 15.4c-0.3 5.1-0.6 10.2-0.3 15.3 0.6 10 4.5 19.2 8.5 28.2 2.3 5.3 4.5 10.6 6.9 15.7 1.3 2.6 2.6 5.1 3.8 7.7 1.3 2.7 2.7 5.3 3.9 8 0.1 0.1 0.4 0 0.3-0.2-0.9-2.3-1.6-4.8-2.5-7.2z"/>
					<path id="&lt;Path&gt;" class="s5" d="m329.4 618.5c0-0.6-0.8-0.5-0.8 0-0.4 5.6-0.8 11.2-0.9 16.7q0 4.1 0.2 8.3c0.1 1.3 0.3 2.6 0.3 3.9 0.1 1.4 0.2 2.8 0.5 4.1 0.1 0.1 0.3 0.1 0.3 0 0.7-2.5 0.7-5.3 0.8-7.8q0.3-4.3 0.3-8.5c0-5.6-0.3-11.2-0.7-16.7z"/>
				</g>
			</g>
			<g id="&lt;Group&gt;">
				<g id="&lt;Group&gt;">
					<path id="&lt;Path&gt;" class="s6" d="m597.9 688c6.1 0.2 4.5-99.1-18.9-125.2-3.3-3.8-56.2 64.2-56.9 66.5-0.7 2.3 63.4 58.2 75.8 58.7z"/>
					<path id="&lt;Path&gt;" class="s9" d="m596.1 687.6c5.2 0.1 3.8-84.6-16.1-106.9-2.9-3.2-48 54.8-48.6 56.8-0.6 1.9 54.1 49.7 64.7 50.1z"/>
					<g id="&lt;Group&gt;">
						<path id="&lt;Path&gt;" class="s5" d="m577.8 681.4q0.4-4.1 1.2-8.1 0.7-4 1.9-7.9c1.6-5.2 3.7-10.2 6.7-14.7 2.9-4.5 6.6-8.5 11.1-11.4 1.1-0.8 2.3-1.4 3.5-2.1 1.2-0.6 2.4-1.2 3.7-1.6 2.5-1.1 5.2-1.7 7.8-2.3-5.4 0.5-10.8 2.1-15.6 5-2.4 1.4-4.5 3.2-6.5 5.2-1.9 1.9-3.7 4.1-5.2 6.4-3 4.7-5.2 9.9-6.6 15.2-1.3 5.3-2.1 10.8-2 16.3z"/>
						<path id="&lt;Path&gt;" class="s5" d="m574 679.7q-0.5-5.9-0.1-11.8 0.3-5.8 1.3-11.6c1.4-7.7 3.5-15.3 6.9-22.3 1.7-3.5 3.6-6.9 5.8-10.1q3.4-4.8 7.5-9c2.7-2.8 5.7-5.4 8.9-7.6 3.1-2.4 6.5-4.4 9.9-6.3-7.2 3.2-13.9 7.6-19.6 13.1-2.9 2.7-5.4 5.8-7.7 9-2.3 3.3-4.3 6.7-6.1 10.3-3.3 7.2-5.6 14.9-6.7 22.7-1.1 7.8-1.3 15.8-0.1 23.6z"/>
					</g>
				</g>
				<g id="&lt;Group&gt;">
					<path id="&lt;Path&gt;" class="s6" d="m392.8 705.5c-6 0.8-13.7-98.2 7.1-126.4 3-4.1 62 58.6 62.9 60.9 1 2.2-57.7 63.9-70 65.5z"/>
					<path id="&lt;Path&gt;" class="s9" d="m394.6 704.9c-5.1 0.7-11.7-83.8 6.1-107.9 2.5-3.4 52.8 50.1 53.6 52 0.8 1.9-49.2 54.5-59.7 55.9z"/>
					<path id="&lt;Path&gt;" class="s5" d="m463.1 639.3c-4.1-5.9-23.8-27.3-29-32.4-5.5-5.3-11.1-10.3-16.8-15.3q-4.5-3.9-9-7.8-2.3-2-4.5-3.9c-1.3-1.1-2.6-2.4-4.1-3.1-3.6-1.6-10.9 17.2-14.6 38.6-2.5 14.2-2.8 28.8-2.1 43.3 0.3 8.1 1.1 16.2 2.6 24.2 1.4 7.9 3.1 15.8 5.7 23.5 0.1 0.1 0.3 0 0.3-0.1-1.4-6.9-2.8-13.8-3.6-20.8q-1.2-10.3-1.7-20.7c-0.6-13.8-0.3-27.8 1.4-41.5 3.5-26.6 11.7-43.5 11.9-43.3 1.5 1.4 2.9 2.8 4.4 4.1q4.2 3.9 8.4 7.8c5.5 4.9 10.9 9.8 16.5 14.6 5.9 5.1 28.4 27.1 33.6 33.2 0.3 0.4 0.8 0 0.6-0.4z"/>
					<g id="&lt;Group&gt;">
						<path id="&lt;Path&gt;" class="s5" d="m412.2 697.1q-0.7-4.1-1.9-8-1.1-3.9-2.7-7.7c-2-5-4.6-9.8-8-14-3.3-4.2-7.4-7.8-12.2-10.3-1.1-0.7-2.4-1.2-3.6-1.8-1.3-0.4-2.5-0.9-3.8-1.3-2.6-0.8-5.3-1.1-8-1.5 5.4 0 11 1.1 16 3.6 2.5 1.1 4.8 2.7 6.9 4.5 2.2 1.8 4.1 3.7 5.9 5.9 3.3 4.4 6 9.4 7.9 14.5 1.8 5.2 3.1 10.6 3.5 16.1z"/>
						<path id="&lt;Path&gt;" class="s5" d="m415.9 695q-0.1-5.9-1.1-11.7-0.8-5.8-2.3-11.5c-2.1-7.5-5-14.9-9-21.5-2-3.4-4.2-6.6-6.7-9.6q-3.8-4.4-8.3-8.2c-3-2.5-6.2-4.8-9.6-6.8-3.3-2.1-6.9-3.7-10.4-5.3 7.4 2.5 14.5 6.3 20.7 11.2 3.1 2.5 5.9 5.3 8.6 8.3 2.6 3 4.9 6.2 6.9 9.6 4.1 6.9 7 14.3 8.8 22 1.8 7.7 2.8 15.7 2.4 23.5z"/>
					</g>
				</g>
				<g id="&lt;Group&gt;">
					<g id="&lt;Group&gt;">
						<path id="&lt;Path&gt;" class="s6" d="m559.3 776.5c1.9-0.6 39.8-26.9 52.7-65.5 2.1-6.6-47.6-75.2-71.8-87.7-12.1-6.4-84.4 3.9-88.7 5.3-17 5.5-66.7 76.4-64.4 98.1 0.8 8 24.6 39.1 66.1 56.3 10.1 4.3 62.2 7.4 106.1-6.5z"/>
						<g id="&lt;Group&gt;">
							<path id="&lt;Path&gt;" class="s5" d="m401.2 689.2c-5.2 6.2-9.9 12.9-13.1 20.4-1.6 3.8-2.8 7.7-3.5 11.7-0.7 3.9-1.2 8-1.3 12 0 0.2 0.3 0.3 0.3 0.1 1-3.9 1.9-7.8 3.2-11.6 1.3-3.7 2.6-7.4 4-11.1 2.9-7.4 6.3-14.7 10.8-21.2 0.1-0.2-0.2-0.5-0.4-0.3z"/>
							<path id="&lt;Path&gt;" class="s5" d="m403.3 749.7c-3.6-3.9-7.2-7.8-9.9-12.3-2.9-5-4.5-11.5-3.7-17.3 0-0.2-0.3-0.2-0.3 0-0.4 3.2-1.2 6.3-1.1 9.6 0.2 3 0.9 5.9 2.4 8.6 2.8 5.1 7.5 8.6 12.3 11.8 0.2 0.1 0.4-0.2 0.3-0.4z"/>
							<path id="&lt;Path&gt;" class="s5" d="m555.2 633.6c-3.1-3-6.2-6-9.6-8.7-1.5-1.2-3.1-2.4-4.9-3.1-1.9-0.8-22.7-3.5-86.4 4.5-4.5 0.6-8.1 3.3-11.3 6.5-3.5 3.4-6.7 7.3-9.9 10.9-0.2 0.2 0 0.4 0.2 0.2 3.1-2.8 6.3-5.6 9.4-8.4 3-2.6 6.6-5.7 10.6-6.2 32.8-4.6 78.1-7.8 89.9-3.7 2.2 0.7 3.8 2.6 5.6 4 2 1.5 4.1 2.9 6 4.4 0.3 0.2 0.7-0.1 0.4-0.4z"/>
							<path id="&lt;Path&gt;" class="s5" d="m609.4 698.3c-3.8-6.8-8.6-12.9-13.9-18.4-3.1-3.3-6.4-6.3-9.5-9.6-0.1-0.2-0.3 0-0.2 0.2 3.4 3.8 6.4 7.9 9.4 12 2.8 3.8 5.7 7.7 8.3 11.7 2.4 3.8 4.4 7.8 6.6 11.8 2.3 4.1 4.1 8.5 5.2 13.1 0 0.2 0.4 0.2 0.3 0-0.8-7.3-2.7-14.4-6.2-20.8z"/>
						</g>
					</g>
					<path id="&lt;Path&gt;" class="s4" d="m609.6 717.2c-14.5 35.2-48.5 58.8-50.3 59.3-43.9 13.9-96 10.8-106.1 6.5-21.7-9-38.5-21.7-49.7-33l-0.2-0.3c0 0 17-5.7 26.3-3.8 9.3 1.8 22.6 14.9 42.3 14.5 19.8-0.5 20.7-12.6 25.1-20.4 2.1-3.7 7.8-10.7 21.4-7.1 0 0 3-33 6.4-34.4 4.4-1.6 10.6 31.9 11.4 32.8 0.9 0.9 4.5-3.8 9.3 0 4.9 3.9 9.1 17.4 23.1 17.4 16.9 0 18.4-23.4 28.6-28.5 4.1-2.1 8.6-2.9 12.4-3z"/>
					<g id="&lt;Group&gt;">
						<g id="&lt;Group&gt;">
							<g id="&lt;Group&gt;">
								<path id="&lt;Path&gt;" class="s5" d="m563.9 692.6c13.1-1.4 21 10.9 22.6 26.1 1.4 12.4-5.1 25.8-17.6 27.2-12.5 1.3-21.9-12.7-23.1-24.3-1.2-11.6 3.9-27.5 18.1-29z"/>
								<path id="&lt;Path&gt;" class="s4" d="m563 695.9c12.3-1.3 19.7 10.3 21.3 24.6 1.2 11.6-4.8 24.2-16.6 25.5-11.8 1.2-20.6-11.9-21.7-22.8-1.2-10.9 3.6-25.9 17-27.3z"/>
								<path id="&lt;Path&gt;" class="s5" d="m566.1 706.1c9.6-1 15.5 8 16.7 19.3 0.9 9-3.8 18.9-13 19.9-9.2 1-16.1-9.3-17-17.8-0.9-8.6 2.9-20.3 13.3-21.4z"/>
								<path id="&lt;Path&gt;" class="s4" d="m559 702c4.4-0.5 7 3.7 7.6 8.8 0.4 4.1-1.7 8.6-5.9 9-4.2 0.5-7.3-4.2-7.8-8.1-0.4-3.9 1.4-9.2 6.1-9.7z"/>
							</g>
							<g id="&lt;Group&gt;">
								<path id="&lt;Path&gt;" class="s5" d="m471.3 704.8c-16.9-2.3-27.2 9.6-29.2 24.8-1.6 12.3 6.8 26.2 23 28.4 16.3 2.1 28.3-11.3 29.9-22.9 1.5-11.5-5.3-27.9-23.7-30.3z"/>
								<path id="&lt;Path&gt;" class="s4" d="m472.5 708.2c-15.9-2.1-25.5 9-27.4 23.3-1.5 11.6 6.3 24.6 21.6 26.7 15.3 2 26.6-10.6 28-21.5 1.5-10.9-4.9-26.2-22.2-28.5z"/>
								<path id="&lt;Path&gt;" class="s5" d="m474.9 718.2c-12.4-1.6-20 7.1-21.5 18.3-1.2 9 5 19.3 17 20.9 12 1.5 20.8-8.4 21.9-16.9 1.2-8.5-3.8-20.5-17.4-22.3z"/>
								<path id="&lt;Path&gt;" class="s4" d="m463.9 713.9c-5.6-0.8-9 3.2-9.7 8.3-0.6 4.1 2.3 8.7 7.7 9.4 5.4 0.8 9.4-3.7 9.9-7.6 0.6-3.8-1.7-9.3-7.9-10.1z"/>
							</g>
							<g id="&lt;Group&gt;">
								<g id="&lt;Group&gt;">
									<path id="&lt;Path&gt;" class="s5" d="m517.7 732.5c0.2 1.4 9 6.2 10 6.2 1-0.1 9.4-5.8 9.6-7.2 0.1-1.5-7.9-1.6-9.9-1.5-2 0.1-10 1.1-9.7 2.5z"/>
								</g>
								<path id="&lt;Path&gt;" class="s5" d="m544.2 741.2c-1.3 2.1-2.7 4.2-4.1 6.1-0.8 0.9-1.5 1.8-2.4 2.5-0.4 0.3-0.9 0.6-1.2 0.6-0.2 0-0.7-0.2-1.1-0.5-0.8-0.6-1.5-1.5-2.1-2.5q-0.9-1.4-1.6-3.1c-0.9-2.1-1.8-4.4-2.4-6.7l-1.3-4.1-1.2 4.1c-0.8 2.8-1.8 5.6-3.1 8.2-0.6 1.3-1.4 2.5-2.2 3.6-0.8 1.1-1.8 2.1-2.9 2.4l-0.4 0.1-0.4 0.1q-0.5-0.1-1-0.1-0.9-0.2-1.9-0.7c-1.2-0.6-2.4-1.5-3.5-2.5-2.2-1.9-4.1-4.2-5.9-6.6 1.4 2.7 3.1 5.2 5.1 7.4 1 1.2 2.2 2.2 3.6 3.1 1.3 0.8 2.9 1.5 4.9 1.1 1.8-0.5 3.1-1.7 4.1-2.9 1-1.3 1.9-2.6 2.6-3.9 1.5-2.8 2.5-5.6 3.5-8.6h-2.5c0.8 2.5 1.6 4.8 2.8 7q0.8 1.7 1.9 3.3c0.7 1.1 1.6 2.1 2.9 2.9 0.6 0.4 1.3 0.7 2.3 0.6 1-0.1 1.5-0.6 2-1.1 1-0.9 1.7-2 2.3-3.1q1.9-3.2 3.2-6.7z"/>
							</g>
						</g>
						<g id="&lt;Group&gt;">
							<path id="&lt;Path&gt;" class="s5" d="m591.7 729.3c7.2-0.7 14.3-1.2 21.5-1.5 7.2-0.3 14.4-0.6 21.5-0.5 3.6 0 7.2 0.1 10.8 0.1 3.6 0.2 7.2 0.3 10.7 0.5 7.2 0.3 14.4 1 21.5 1.6-3.5-0.6-7.1-1.2-10.6-1.6-3.6-0.4-7.2-0.8-10.8-1.1-7.2-0.6-14.4-0.8-21.6-0.9-7.2 0-14.4 0.2-21.6 0.8q-5.3 0.4-10.7 1c-3.6 0.5-7.2 1-10.7 1.6z"/>
							<path id="&lt;Path&gt;" class="s5" d="m594.7 733.4c3.3 0.1 6.5 0.2 9.8 0.3q4.8 0.2 9.7 0.4c6.4 0.4 12.9 0.7 19.3 1.3 3.3 0.3 6.5 0.6 9.7 0.9l9.6 1.1 4.9 0.6 4.8 0.7c3.2 0.3 6.4 1 9.6 1.4-6.3-1.5-12.7-2.9-19.1-3.8-6.4-1-12.9-1.7-19.4-2.3-6.4-0.5-12.9-0.9-19.4-1-6.5-0.1-13 0-19.5 0.4z"/>
							<path id="&lt;Path&gt;" class="s5" d="m593 737.6c2.7 0.3 5.4 0.7 8 1.2q4 0.6 8 1.2c5.3 1 10.6 1.9 15.9 2.9q8 1.6 15.9 3.3c5.3 1.1 10.5 2.3 15.8 3.5q-3.9-1.3-7.7-2.5c-2.6-0.7-5.2-1.5-7.9-2.1-5.2-1.4-10.5-2.5-15.8-3.6-5.3-1-10.7-1.9-16-2.6-5.4-0.6-10.8-1.2-16.2-1.3z"/>
						</g>
						<g id="&lt;Group&gt;">
							<path id="&lt;Path&gt;" class="s5" d="m431.8 752.6c-4.4-0.3-8.9-0.3-13.4-0.4q-6.7 0-13.4 0.3c-8.9 0.3-17.8 1-26.7 2-8.9 1.1-17.7 2.3-26.5 4.1-4.4 0.8-8.7 1.8-13.1 2.8-2.2 0.5-4.3 1.1-6.5 1.6l-6.4 1.8c8.7-1.8 17.4-3.7 26.2-5.1 4.4-0.8 8.8-1.4 13.2-2.1 4.4-0.6 8.8-1.2 13.3-1.6 8.8-1.1 17.7-1.8 26.6-2.4 8.9-0.6 17.8-0.9 26.7-1z"/>
							<path id="&lt;Path&gt;" class="s5" d="m428.6 758.1c-8 0.4-16 1.3-24 2.3-8 1.1-15.9 2.5-23.8 4-7.9 1.6-15.8 3.3-23.5 5.4-7.8 2.1-15.5 4.5-23.1 7.2 3.9-1 7.7-2.2 11.6-3.1l5.9-1.6 5.8-1.4c3.9-0.9 7.9-1.8 11.8-2.7 3.9-0.8 7.8-1.7 11.8-2.4 7.8-1.6 15.7-3 23.7-4.3q5.9-0.9 11.9-1.8c4-0.6 8-1.1 11.9-1.6z"/>
							<path id="&lt;Path&gt;" class="s5" d="m431.4 762.9c-6.7 1.1-13.2 2.5-19.7 4.1-6.6 1.6-13 3.5-19.4 5.4-6.4 2.1-12.8 4.2-19.1 6.6-3.1 1.2-6.2 2.4-9.3 3.7q-4.7 1.9-9.3 4c6.4-2.2 12.7-4.5 19-6.7q9.5-3.2 19.1-6.2c6.4-2 12.8-3.9 19.2-5.7q4.9-1.4 9.7-2.7c3.3-0.8 6.5-1.7 9.8-2.5z"/>
						</g>
					</g>
				</g>
			</g>
		</g>
	</g>
	<g id="Ball">
		<g id="&lt;Group&gt;">
			<path id="&lt;Path&gt;" class="s7" d="m573.2 823.3c0-4.5 3.1-5.8 3.1-5.8 0 0-3.6-2.1-2.4-5.8 1.1-3.7 5.6-3.3 5.6-3.3 0 0-3-2.2-1-6.1 1.5-3.2 6.3-1.5 6.3-1.5 0 0-3.1-3.1-0.6-7.3 1.1-1.8 4.4-1.6 4.6-1.9 7.5-9.7 23.3-29.5 62.2-19.9 29.6 7.3 38.9 35.8 37.7 60.7-0.1 0.4 2 0.6 2 3.3 0 2.5-1.7 3.2-1.7 3.2 0 0 2.1 1.7 0.8 4.5-1.4 2.8-4.3 2.1-4.3 2.1 0.5 1 3 2.6 1.6 6.2-1.4 3.6-5.2 2.9-5.2 2.9 0 0 1.9 2.3 0.1 5.4-0.5 0.8-3.8 1-4.3 1.3 31.9 16.5 81.8 16.1 91.9 20.1 33 13-5.9 44.9-34.4 35-1.8-0.6 1.1-4.1 3-3.9 32.2 3 47.2-20.4 27.9-25.8-12.5-3.5-61.6-2.9-91-19.6-2.4-1.4-3.9 2-4.6 2.6-15.2 15.3-47.1 19.8-67.3 8.5-25.8-14.4-28.1-37.4-27.5-50.1 0 0-2.5-1.2-2.5-4.8z"/>
			<g id="&lt;Group&gt;">
				<path id="&lt;Path&gt;" class="s5" d="m589.7 809.1c7.4 14.6 23.2 23.7 38.2 29 15.9 5.6 32.9 7.1 49.6 4.3 1.2-0.2 1.7 1.7 0.5 1.9-17.5 3-35.6 1.4-52.2-4.9-14.9-5.5-30.4-14.7-37.8-29.3-0.6-1.1 1.1-2.1 1.7-1z"/>
				<path id="&lt;Path&gt;" class="s5" d="m584.6 826.4c21.9 24.3 53.8 36.6 86.4 33.4 1.3-0.2 1.2 1.8 0 1.9-33.1 3.3-65.6-9.3-87.8-33.9-0.9-1 0.5-2.4 1.4-1.4z"/>
				<path id="&lt;Compound Path&gt;" fill-rule="evenodd" class="s5" d="m588.4 791.5c9.3-15.9 27.7-21.1 45.1-21.3 0.4 0 0.7 0.2 0.9 0.5q1.3-0.8 2.8-1.3c1.2-0.4 1.7 1.5 0.5 1.9-5.5 1.9-8.7 7.1-7.8 12.9q0 0.1 0 0.2 2.1-0.4 4.3-0.6 0-0.1 0-0.3c0.2-6 4-11.1 9.6-13.2 0.6-0.2 1 0.2 1.1 0.7q0.1 0 0.2 0.1 0.1 0 0.1 0c0.2-0.2 0.5-0.4 0.9-0.3 19.7 3.3 30.1 18.6 35.6 36.4q0.1-0.2 0.2-0.3c0.7-1.1 2.4-0.2 1.7 1q-0.6 1.1-1.3 2.2 0 0.1-0.1 0.1c-4.7 7.9-10.6 15-17.4 21.1q-0.2 0.3-0.5 0.5-2.2 1.9-4.4 3.7 2.7 0.1 5.4 0c0-0.3 0.2-0.6 0.5-0.8 8.4-5.8 15-13.5 19.3-22.8 0.5-1.2 2.2-0.2 1.7 1-4.2 9-10.5 16.6-18.5 22.4 5-0.4 10.1-1.3 15.1-2.8 1.3-0.3 1.8 1.6 0.6 1.9-36 10.4-72.7-5.9-94.1-35.6-0.7-1 1-2 1.7-1q0.2 0.2 0.3 0.4c6.5-15.2 21.2-24.4 37.7-23.6q0.3 0 0.5 0.2 0.9-1.5 2.2-2.6c-16.7 0.4-34.2 5.6-42.7 21.3q-0.1 0.2-0.3 0.3 0.2 0.8 0.3 1.7c0.3 1.2-1.6 1.8-1.9 0.5l-0.6-3.3c-0.2-0.9 0.7-1.4 1.3-1.2zm92 18c-4.9-16.7-13.8-31.4-31-36 14.2 9 27.2 24.4 27.3 41.6q1.9-2.7 3.7-5.6zm-5.8 8.4c1.4-17.4-11.4-33-25.6-42.2 13.8 11.7 21.7 28.7 21.6 47q2.1-2.3 4-4.8zm-9.6 10.6q1.9-1.8 3.7-3.7-0.1-0.2-0.1-0.5c0.6-20.6-9.1-39.7-26.2-51.2q-0.2 0.2-0.4 0.3c15.5 13.9 24.1 34.3 23 55.1zm-10.7 6.7q0.1-1.4 0.1-2.8c0.1-1.3 2.1-1.3 2 0q0 1.5-0.1 2.9 0.6 0.1 1.2 0.1c0-0.3 0.1-0.6 0.4-0.8q2.6-2 5-4.2c1.7-21.1-6.7-41.8-22.5-55.8q-1.2 1.1-2 2.3 0.1 0.1 0.2 0.2c12.1 14.5 18.4 32.8 17.8 51.7 0 1.3-2 1.3-2 0 0.6-18.3-5.4-36-17-50.1q-0.8 1.6-1.1 3.3 0.4 0.1 0.6 0.5c10.1 15.5 14.9 33.7 13.8 52.3q1.8 0.2 3.6 0.4zm-33.5-45.5q-1.9 1.1-3.6 2.4c3.3 6.8 8 12.7 13.8 17.4 0.2 0.1 0.5 0.2 0.6 0.5 4.9 3.8 10.4 6.8 16.6 8.6q-0.2-1.5-0.5-3 0 0 0 0c-11.7-5.5-21-14.4-26.9-25.9zm-27.4 10.1q-0.1 0.1-0.1 0.2 1.8 2.3 3.7 4.6c4.5-14.5 16.4-24.7 31.4-26.9q0.1-0.1 0.2 0 0.2-0.6 0.5-1.1c-15.8-0.6-29.9 8.4-35.7 23.2zm20.5-4.4c-2.9 6.4-2.3 13.4 1.3 19.2q1.7-0.9 3-2.3c-3.8-4.6-4.4-10.6-1.5-15.9q0.2-0.2 0.3-0.3-0.7-1.4-1.4-2.8-0.9 0.8-1.6 1.6 0 0.2-0.1 0.5zm5.6 15.4c1.3-1.9 2.2-4 2.6-6.5 0.1-0.2 0.2-0.3 0.3-0.5q-2.3-2.7-4.2-5.9c-2.2 4.4-1.7 9.1 1.3 12.9zm22.4-1.1q-0.1 0.2-0.2 0.3 2.7 1.7 5.6 3.2-0.6-3-1.4-5.9c-1.7-0.1-3.4 0.8-4 2.4zm3.4-4.4q-1.2-4.1-2.9-8.1c-3.8 0.7-6.8 3.4-7.8 7.1q-0.1 0.1-0.1 0.1 2.7 2.5 5.6 4.5c0.9-2.1 2.9-3.5 5.2-3.6zm-12.4-2.3c1.4-3.9 4.7-6.8 8.7-7.7q-0.8-1.8-1.7-3.6 0 0.1-0.1 0.1c-4.6 1-7.9 4.5-8.8 9.2q0.9 1 1.9 2zm15.8 31.4q0.3-4 0.1-8c-1.8 2.9-4.5 5.2-7.8 6.3q3.8 1.1 7.7 1.7zm-10.3-2.5c0-0.3 0.2-0.6 0.6-0.7 4.1-1 7.3-3.7 9-7.6 0.1-0.3 0.4-0.4 0.6-0.5q-0.1-1.2-0.2-2.5-0.3 0.1-0.6 0-4.6-1.4-8.9-3.6c-0.1 5.2-2.8 9.9-7.3 12.5q3.3 1.4 6.8 2.4zm-9.1-3.3q0.1-0.2 0.3-0.3c4.8-2.3 7.6-7.1 7.3-12.4q-2.9-1.6-5.6-3.6c-1.2 5.7-5.2 10.2-10.9 11.7q4.3 2.6 8.9 4.6zm-11.1-5.9c0.1-0.2 0.2-0.3 0.5-0.3 5.8-1.1 10.1-5.6 10.9-11.5q-1.2-0.9-2.3-2c-2.5 5.4-5.7 10.9-11.9 12q1.4 0.9 2.8 1.8zm-4.6-3.1c0.1-0.3 0.4-0.5 0.8-0.5 6.2-0.6 9.1-6.5 11.4-11.6q-1-1-1.9-2c-1.3 6.4-6 11.2-12.3 12.7q1 0.7 2 1.4zm-6.3-14c-0.6 4 0.4 7.7 2.8 10.9q1.8-0.3 3.4-1c-3.2-5.1-4.2-11.1-2.8-16.8-1.4 1.9-2.6 4-3.6 6.1 0.2 0.2 0.3 0.5 0.2 0.8zm-0.9 8.4q-1-2.4-1.1-5-0.6 1.4-1.2 2.9 1.1 1.1 2.3 2.1zm-3.9-3.5c3-7.7 6.5-14.7 13.2-19.8 3.7-2.8 7.9-4.8 12.3-5.9q0 0 0-0.1-0.4-2.6 0.1-5c-14.1 2.5-25.2 12.1-29.4 25.9q-0.1 0.3-0.3 0.5 2 2.2 4.1 4.4zm23.5-15.8c0.2-3 1.3-5.8 3.1-8.2q-3.4 0.8-6.6 2.3 1.6 3.1 3.5 5.9zm2.1 2.7q0 0 0 0 0.6 0.9 1.3 1.7c1.3-4.5 4.9-8 9.6-9.2q-1.2-2.2-2.5-4.3-2.1 0-4.3 0.3c-3.2 3.1-4.6 7.1-4.1 11.5z"/>
				<path id="&lt;Compound Path&gt;" fill-rule="evenodd" class="s5" d="m584.7 837.6q0.1-0.2 0.2-0.3c-0.5-0.9 0.8-2 1.5-1.1 19.5 21.8 47.9 32.6 76.9 29.4 1.3-0.1 1.3 1.8 0 2q-1 0.1-2.1 0.2c-0.3 4.7-2.3 8.9-5.8 12-1 0.9-2.4-0.5-1.4-1.4 3-2.7 4.9-6.4 5.2-10.5q-2.6 0.2-5.2 0.2c-1.2 5.6-3.7 10.6-7.5 14.8-0.9 1-2.3-0.4-1.4-1.4 3.5-3.8 5.7-8.3 6.8-13.4q-1.6 0-3.3-0.1c-1 6.1-3.9 11.5-8.4 15.7-1 0.9-2.4-0.5-1.4-1.4 4.2-3.9 6.8-8.8 7.8-14.4q-0.9-0.1-1.8-0.2c-1.8 6.4-5 12-9.5 16.8-0.9 0.9-2.3-0.5-1.4-1.4 4.2-4.5 7.2-9.7 8.9-15.6q-2-0.2-3.9-0.5 0 0.3-0.1 0.5c-3 7-8 12.7-14.5 16.7-1.1 0.6-2.1-1.1-1-1.7 6.2-3.8 10.8-9.2 13.7-15.8q-1.8-0.3-3.5-0.7 0 0.3-0.3 0.6c-6.9 7.4-16.3 11.4-26.5 11.3-1.2 0-1.2-2 0-2 9.5 0.1 18.2-3.6 24.8-10.4q-2.6-0.6-5.2-1.4c-6.7 5.8-14.7 9.2-23.5 10.1 0 0.8-1.3 1.4-1.9 0.5-4.9-7.3-6.1-16-3.4-24.3 0.2-0.4 0.4-0.6 0.8-0.7q-1.8-1.3-3.4-2.7c-4.7 8-4.4 17.2 1 24.9 0.7 1-1 2-1.7 1-5.8-8.3-6.1-18.6-0.9-27.2q-1.8-1.6-3.5-3.3c-3.6 6.4-4.4 13.4-2.4 20.5 0.4 1.2-1.6 1.7-1.9 0.5-2.2-7.7-1.2-15.5 2.8-22.4q-1-1-2-2.1c-2.7 5.4-3.8 11.2-3.3 17.3 0.1 1.3-1.9 1.3-2 0-0.6-6.5 0.7-12.8 3.7-18.6zm29.1 31.9q5.5-2.2 10.3-6.1-6.2-2.1-12-5.1c-0.6 3.9 0 7.7 1.7 11.2q0 0 0 0zm-1.9 0.7q-2.7-6.1-1.7-12.6 0-0.1 0.1-0.2-2.3-1.2-4.5-2.6c-1 5.7-0.4 11.3 1.7 16.6q2.2-0.5 4.4-1.2zm-10 2.4c0.2-0.2 0.4-0.4 0.7-0.4q1.5-0.1 2.9-0.4c-2.2-5.7-2.7-11.6-1.6-17.6q0.1-0.2 0.2-0.4-2.3-1.5-4.6-3.2 0 0.1-0.1 0.3c-2.4 7.5-1.5 15.1 2.5 21.7z"/>
				<path id="&lt;Path&gt;" class="s5" d="m627.1 848.4c16.9 7.9 35.7 6.4 53.7 4.8 1.3-0.1 1.3 1.9 0 2-18.5 1.6-37.4 3-54.7-5.1-1.2-0.5-0.2-2.2 1-1.7z"/>
				<path id="&lt;Path&gt;" class="s5" d="m681.2 838.1q3.8-0.4 7.5-0.9c1.3-0.1 1.3 1.9 0 2q-3.7 0.4-7.5 0.9c-1.2 0.1-1.2-1.9 0-2z"/>
				<path id="&lt;Path&gt;" class="s5" d="m579.7 808.4c6.9 15.5 19.4 27.7 35.2 34 1.2 0.4 0.7 2.3-0.5 1.9-16.3-6.5-29.3-18.9-36.4-34.9-0.6-1.1 1.1-2.2 1.7-1z"/>
				<path id="&lt;Path&gt;" class="s5" d="m585.9 799.2c11.8 15.4 27.2 27.6 44.9 35.7 1.1 0.6 0.1 2.3-1 1.7-18-8.2-33.5-20.7-45.6-36.4-0.8-1 1-2 1.7-1z"/>
				<path id="&lt;Path&gt;" class="s5" d="m634.1 836.2c1.3 0 1.3 1.9 0 1.9-1.3 0-1.3-1.9 0-1.9z"/>
				<path id="&lt;Path&gt;" class="s5" d="m632.2 844c17.2 5.6 35.3 6.3 52.8 2 1.2-0.3 1.8 1.6 0.5 1.9-17.8 4.4-36.3 3.7-53.8-2-1.2-0.4-0.7-2.3 0.5-1.9z"/>
				<path id="&lt;Path&gt;" class="s5" d="m622.2 846.5c1.3 0 1.3 1.9 0 1.9-1.3 0-1.3-1.9 0-1.9z"/>
				<path id="&lt;Path&gt;" class="s5" d="m577.4 829.4q-0.6-1-0.9-2.1c-0.5-1.2 1.4-1.7 1.9-0.5 1 2.8 2.8 5.1 5.2 6.8 1 0.7 0 2.4-1 1.7q-0.3-0.2-0.6-0.5c-1.9 4.1-2.6 8.5-2.1 13 0.1 1.2-1.9 1.2-2 0-0.5-5 0.4-9.8 2.5-14.3q-1-1-1.7-2.1-0.9 2.4-1 4.9c-0.1 1.3-2.1 1.3-2 0 0.2-2.4 0.7-4.7 1.7-6.9z"/>
				<path id="&lt;Path&gt;" class="s5" d="m666.9 865.2q2.6-0.4 5.1-0.8c0.4 0 0.7 0.1 0.9 0.3 0.7-1.9 2.2-3.4 4.2-4 1.2-0.4 1.7 1.5 0.5 1.9-1.7 0.5-2.9 2.1-3.1 3.8-0.1 1.3-2.1 1.3-2 0q0 0 0-0.1-2.5 0.4-5 0.8c-1.3 0.2-1.8-1.7-0.6-1.9z"/>
			</g>
		</g>
	</g>
</svg>